<svg width="51" height="50" viewBox="0 0 51 50" fill="none" xmlns="http://www.w3.org/2000/svg">
<path d="M20.8819 8.88882C21.0092 9.14798 21.0933 9.42552 21.131 9.71084L21.8271 20.0606V20.0606L22.1726 25.2627C22.1762 25.7976 22.2601 26.3292 22.4217 26.8401C22.839 27.8314 23.8429 28.4614 24.9351 28.4175L41.5783 27.3289C42.299 27.317 42.995 27.5865 43.5131 28.0782C43.9449 28.4879 44.2236 29.0239 44.3114 29.6004L44.3409 29.9505C43.6522 39.4872 36.6479 47.4416 27.1309 49.495C17.6139 51.5483 7.85466 47.2107 3.15177 38.8372C1.79597 36.4045 0.949126 33.7306 0.660955 30.9724C0.540571 30.1559 0.487564 29.3312 0.502448 28.5064C0.487585 18.2818 7.76868 9.44239 17.9608 7.31141C19.1875 7.12041 20.3901 7.7698 20.8819 8.88882Z" fill="#97A5EB"/>
<path opacity="0.4" d="M27.6749 0.00204796C39.0746 0.292066 48.6557 8.48947 50.4999 19.5307L50.4823 19.6122V19.6122L50.432 19.7307L50.439 20.0559C50.4129 20.4868 50.2465 20.9014 49.9598 21.2362C49.6612 21.585 49.2532 21.8226 48.8039 21.9148L48.5299 21.9524L29.3279 23.1965C28.6892 23.2595 28.0533 23.0536 27.5783 22.6299C27.1825 22.2768 26.9294 21.8002 26.8579 21.2867L25.5691 2.11266C25.5466 2.04782 25.5466 1.97754 25.5691 1.9127C25.5867 1.38418 25.8193 0.8846 26.215 0.525575C26.6107 0.166549 27.1365 -0.0220009 27.6749 0.00204796Z" fill="#FFCC91"/>
</svg>
